<?xml version="1.0" encoding="UTF-8" standalone="no"?>
<svg
   viewBox="-0.003 -293.41895 33.936288 28.310707"
   fill-rule="evenodd"
   clip-rule="evenodd"
   stroke-linejoin="round"
   stroke-miterlimit="2"
   width="48"
   height="48"
   version="1.1"
   id="svg6"
   sodipodi:docname="whatsapp.svg"
   inkscape:version="1.1 (c4e8f9ed74, 2021-05-24)"
   xmlns:inkscape="http://www.inkscape.org/namespaces/inkscape"
   xmlns:sodipodi="http://sodipodi.sourceforge.net/DTD/sodipodi-0.dtd"
   xmlns="http://www.w3.org/2000/svg"
   xmlns:svg="http://www.w3.org/2000/svg">
  <defs
     id="defs10" />
  <sodipodi:namedview
     id="namedview8"
     pagecolor="#ffffff"
     bordercolor="#666666"
     borderopacity="1.0"
     inkscape:pageshadow="2"
     inkscape:pageopacity="0.0"
     inkscape:pagecheckerboard="0"
     showgrid="false"
     units="px"
     inkscape:zoom="7.2860283"
     inkscape:cx="13.58765"
     inkscape:cy="13.58765"
     inkscape:window-width="1920"
     inkscape:window-height="983"
     inkscape:window-x="0"
     inkscape:window-y="0"
     inkscape:window-maximized="1"
     inkscape:current-layer="svg6" />
  <g
     id="g139"
     transform="matrix(0.03061768,0,0,0.03061768,12.442095,-282.28389)">
    <path
       d="m -71.757883,485.46111 17.734369,8.86672 a 462.72416,462.72416 0 0 0 239.116294,65.0254 C 444.10272,558.76249 656.91329,345.44821 656.91329,86.4392 c 0,-125.173922 -49.71512,-245.383 -138.1203,-333.99558 -88.28758,-89.52833 -208.9087,-139.98235 -334.61595,-139.98235 -257.826603,0 -469.95847,212.1615 -469.95847,469.958461 0,2.039827 0,4.049099 0.0296,6.088926 a 485.01226,485.01226 0 0 0 70.93748,248.279313 l 11.8223,17.73437 -47.29104,174.38719 178.525177,-43.44934 z"
       fill="#00e676"
       fill-rule="nonzero"
       id="path2"
       inkscape:export-filename="/home/festuc/https/gestio/html/scale/img/whatsapp.svg"
       inkscape:export-xdpi="220"
       inkscape:export-ydpi="220"
       style="stroke-width:0.925932" />
    <path
       d="M 538.00605,-285.98069 C 437.36376,-388.66281 299.30087,-446.26872 155.53609,-445.59094 h -0.91667 c -296.0722,9.3e-4 -539.71167,243.64132 -539.71167,539.714448 0,1.388897 0.0296,2.749091 0.0296,4.138914 a 571.07668,571.07668 0 0 0 70.93747,268.969258 l -76.84955,280.79247 286.40918,-73.89305 A 527.04215,527.04215 0 0 0 153.7629,639.15743 C 450.93051,637.5315 694.54035,392.50313 694.36257,95.305922 695.07183,-47.484775 638.76593,-184.80692 538.00605,-285.98069 M 155.53609,547.53001 A 438.83142,438.83142 0 0 1 -71.757913,485.46019 l -17.734368,-8.86765 -170.544569,44.33638 44.33546,-168.47604 -11.8223,-17.73437 A 448.37499,448.37499 0 0 1 -294.70744,98.645758 c 0,-245.973748 202.407734,-448.382398 448.38241,-448.382398 245.97374,0 448.38055,202.40865 448.38055,448.382398 0,154.879662 -80.2468,299.177772 -211.83557,380.902352 A 430.40822,430.40822 0 0 1 157.0148,547.53001 M 416.82196,219.44558 384.3088,204.66771 c 0,0 -47.29196,-20.69087 -76.84862,-35.46874 -2.95558,0 -5.91115,-2.95557 -8.86765,-2.95557 a 42.878043,42.878043 0 0 0 -20.68994,5.91115 c -6.29541,3.69446 -2.95558,2.95557 -44.33546,50.2466 -2.80743,5.52781 -8.57135,8.98617 -14.77787,8.86765 h -2.9565 a 22.526065,22.526065 0 0 1 -11.8223,-5.91115 l -14.77879,-5.91207 A 286.95548,286.95548 0 0 1 103.5154,163.28782 C 97.604246,157.37575 88.737524,151.46368 82.82545,145.55253 A 330.67797,330.67797 0 0 1 26.667696,74.61598 l -2.9565,-5.911148 A 43.032673,43.032673 0 0 1 17.800048,56.881611 22.143655,22.143655 0 0 1 20.755622,42.103742 C 23.445454,37.669455 32.578844,27.324021 41.445565,18.457299 50.313212,9.590578 50.313212,3.67943 56.22436,-2.232644 A 36.416892,36.416892 0 0 0 62.135508,-31.790234 1154.0794,1154.0794 0 0 0 14.844475,-144.10667 34.351138,34.351138 0 0 0 -5.8454681,-158.88546 H -38.358632 c -5.911148,0 -11.822295,2.95557 -17.734369,2.95557 l -2.955574,2.95557 c -5.911147,2.95558 -11.822295,8.86765 -17.734369,11.82322 -5.911147,2.95558 -8.866721,11.82323 -14.777869,17.73437 a 150.69723,150.69723 0 0 0 -32.513157,91.626496 175.02793,175.02793 0 0 0 14.77787,67.981902 l 2.9565,8.866721 A 492.69842,492.69842 0 0 0 3.0221793,195.80006 l 11.8222957,11.82322 a 178.73907,178.73907 0 0 1 23.645516,23.64552 c 61.242045,53.29107 133.982309,91.71538 212.516129,112.31736 8.86672,2.95557 20.68995,2.95557 29.55667,5.91115 h 29.55759 a 109.3766,109.3766 0 0 0 44.33546,-11.82322 c 7.24078,-3.28058 14.15749,-7.24079 20.68994,-11.8223 l 5.91115,-5.91207 c 5.91207,-5.91115 11.82322,-8.86672 17.73437,-14.77787 a 78.14215,78.14215 0 0 0 14.77879,-17.73437 c 5.67504,-13.24175 9.66488,-27.1335 11.82322,-41.37989 v -20.68994 a 37.136341,37.136341 0 0 0 -8.86765,-5.91207"
       fill="#ffffff"
       fill-rule="nonzero"
       id="path4"
       style="stroke-width:0.925932" />
  </g>
</svg>
